<svg width="100" height="100" viewBox="0 0 100 100" fill="none" xmlns="http://www.w3.org/2000/svg">
<rect width="100" height="100" fill="#DDDDDD75"/>
<path fill-rule="evenodd" clip-rule="evenodd" d="M50 26C63.2548 26 74 36.7452 74 50C74 63.2548 63.2548 74 50 74C36.7452 74 26 63.2548 26 50C26 36.7452 36.7452 26 50 26ZM55.6689 60.2041C53.8513 60.3967 51.953 60.5 50 60.5C48.0468 60.5 46.1482 60.3967 44.3303 60.2041C44.7809 62.1898 45.3535 63.9639 46.0112 65.4673C46.8376 67.3561 47.7249 68.6495 48.5198 69.418C49.2965 70.1688 49.791 70.25 50 70.25C50.209 70.25 50.7035 70.1688 51.4802 69.418C52.2751 68.6495 53.1624 67.3561 53.9888 65.4673C54.6465 63.9639 55.2183 62.1897 55.6689 60.2041ZM30.7388 56.2644C32.7359 62.4091 37.5909 67.2633 43.7356 69.2605C42.2804 66.7835 41.115 63.4656 40.3782 59.6211C36.5337 58.8842 33.2157 57.7196 30.7388 56.2644ZM69.2605 56.2637C66.7835 57.719 63.4657 58.8842 59.6211 59.6211C58.8843 63.4656 57.7196 66.7835 56.2644 69.2605C62.4092 67.2633 67.2635 62.4086 69.2605 56.2637ZM50 43.25C47.771 43.25 45.6404 43.3925 43.6506 43.6506C43.3925 45.6404 43.25 47.771 43.25 50C43.25 52.2287 43.3926 54.359 43.6506 56.3486C45.6405 56.6068 47.771 56.75 50 56.75C52.2287 56.75 54.359 56.6067 56.3486 56.3486C56.6067 54.359 56.75 52.2287 56.75 50C56.75 47.771 56.6068 45.6405 56.3486 43.6506C54.359 43.3926 52.2287 43.25 50 43.25ZM39.7952 44.3303C37.8098 44.7809 36.0359 45.3536 34.5327 46.0112C32.6439 46.8376 31.3505 47.7249 30.582 48.5198C29.8312 49.2965 29.75 49.791 29.75 50C29.75 50.209 29.8312 50.7035 30.582 51.4802C31.3505 52.2751 32.6439 53.1624 34.5327 53.9888C36.0359 54.6464 37.8098 55.2184 39.7952 55.6689C39.6026 53.8513 39.5 51.9529 39.5 50L39.5037 49.3804C39.5229 47.645 39.623 45.9554 39.7952 44.3303ZM60.2041 44.3303C60.3967 46.1482 60.5 48.0468 60.5 50C60.5 51.953 60.3967 53.8513 60.2041 55.6689C62.1897 55.2183 63.9639 54.6465 65.4673 53.9888C67.3561 53.1624 68.6495 52.2751 69.418 51.4802C70.0751 50.8004 70.2191 50.3368 70.2449 50.0916L70.25 50L70.2449 49.9084C70.2191 49.6632 70.0751 49.1996 69.418 48.5198C68.6495 47.7249 67.3561 46.8376 65.4673 46.0112C63.9639 45.3535 62.1898 44.7809 60.2041 44.3303ZM43.7349 30.7388C37.5904 32.736 32.7358 37.591 30.7388 43.7356C33.2157 42.2803 36.5337 41.1151 40.3782 40.3782C41.115 36.5338 42.2797 33.2157 43.7349 30.7388ZM56.2637 30.7388C57.719 33.2157 58.8842 36.5336 59.6211 40.3782C63.4654 41.1149 66.7835 42.2798 69.2605 43.7349C67.2631 37.5903 62.4085 32.7357 56.2637 30.7388ZM50 29.75C49.791 29.75 49.2965 29.8312 48.5198 30.582C47.7249 31.3505 46.8376 32.6439 46.0112 34.5327C45.3536 36.0359 44.7809 37.8098 44.3303 39.7952C46.1482 39.6025 48.0468 39.5 50 39.5L50.6196 39.5037C52.3548 39.5229 54.0441 39.623 55.6689 39.7952C55.2184 37.8098 54.6464 36.0359 53.9888 34.5327C53.1624 32.6439 52.2751 31.3505 51.4802 30.582C50.7035 29.8312 50.209 29.75 50 29.75Z" fill="#A6A6A6"/>
</svg>
